<?xml version="1.0" encoding="UTF-8"?>
<svg xmlns="http://www.w3.org/2000/svg" xmlns:xlink="http://www.w3.org/1999/xlink" width="3750" height="2501.25" viewBox="0 0 3750 2501.25">
<defs>
<linearGradient id="linear-pattern-0" gradientUnits="userSpaceOnUse" x1="0.34715" y1="0" x2="0.870926" y2="0" gradientTransform="matrix(-7357.64, -327.683, -327.683, 7357.64, 6358.07, 1405.52)">
<stop offset="0" stop-color="rgb(98.893738%, 93.260193%, 85.916138%)" stop-opacity="1"/>
<stop offset="0.03125" stop-color="rgb(98.867798%, 93.286133%, 86.045837%)" stop-opacity="1"/>
<stop offset="0.0625" stop-color="rgb(98.815918%, 93.339539%, 86.305237%)" stop-opacity="1"/>
<stop offset="0.09375" stop-color="rgb(98.764038%, 93.391418%, 86.566162%)" stop-opacity="1"/>
<stop offset="0.125" stop-color="rgb(98.712158%, 93.443298%, 86.827087%)" stop-opacity="1"/>
<stop offset="0.15625" stop-color="rgb(98.660278%, 93.495178%, 87.086487%)" stop-opacity="1"/>
<stop offset="0.1875" stop-color="rgb(98.608398%, 93.547058%, 87.347412%)" stop-opacity="1"/>
<stop offset="0.21875" stop-color="rgb(98.554993%, 93.598938%, 87.608337%)" stop-opacity="1"/>
<stop offset="0.25" stop-color="rgb(98.503113%, 93.650818%, 87.869263%)" stop-opacity="1"/>
<stop offset="0.28125" stop-color="rgb(98.451233%, 93.704224%, 88.128662%)" stop-opacity="1"/>
<stop offset="0.3125" stop-color="rgb(98.399353%, 93.756104%, 88.389587%)" stop-opacity="1"/>
<stop offset="0.34375" stop-color="rgb(98.347473%, 93.807983%, 88.650513%)" stop-opacity="1"/>
<stop offset="0.375" stop-color="rgb(98.295593%, 93.859863%, 88.909912%)" stop-opacity="1"/>
<stop offset="0.40625" stop-color="rgb(98.243713%, 93.911743%, 89.170837%)" stop-opacity="1"/>
<stop offset="0.4375" stop-color="rgb(98.190308%, 93.963623%, 89.431763%)" stop-opacity="1"/>
<stop offset="0.46875" stop-color="rgb(98.138428%, 94.015503%, 89.691162%)" stop-opacity="1"/>
<stop offset="0.5" stop-color="rgb(98.086548%, 94.068909%, 89.952087%)" stop-opacity="1"/>
<stop offset="0.53125" stop-color="rgb(98.072815%, 94.081116%, 90.019226%)" stop-opacity="1"/>
<stop offset="0.546875" stop-color="rgb(98.106384%, 94.047546%, 89.852905%)" stop-opacity="1"/>
<stop offset="0.5625" stop-color="rgb(98.147583%, 94.006348%, 89.64386%)" stop-opacity="1"/>
<stop offset="0.578125" stop-color="rgb(98.190308%, 93.963623%, 89.434814%)" stop-opacity="1"/>
<stop offset="0.59375" stop-color="rgb(98.231506%, 93.922424%, 89.225769%)" stop-opacity="1"/>
<stop offset="0.609375" stop-color="rgb(98.274231%, 93.881226%, 89.016724%)" stop-opacity="1"/>
<stop offset="0.625" stop-color="rgb(98.31543%, 93.838501%, 88.807678%)" stop-opacity="1"/>
<stop offset="0.640625" stop-color="rgb(98.356628%, 93.797302%, 88.598633%)" stop-opacity="1"/>
<stop offset="0.65625" stop-color="rgb(98.399353%, 93.754578%, 88.389587%)" stop-opacity="1"/>
<stop offset="0.671875" stop-color="rgb(98.440552%, 93.713379%, 88.180542%)" stop-opacity="1"/>
<stop offset="0.6875" stop-color="rgb(98.483276%, 93.67218%, 87.971497%)" stop-opacity="1"/>
<stop offset="0.703125" stop-color="rgb(98.524475%, 93.629456%, 87.762451%)" stop-opacity="1"/>
<stop offset="0.71875" stop-color="rgb(98.565674%, 93.588257%, 87.553406%)" stop-opacity="1"/>
<stop offset="0.734375" stop-color="rgb(98.608398%, 93.547058%, 87.34436%)" stop-opacity="1"/>
<stop offset="0.75" stop-color="rgb(98.649597%, 93.504333%, 87.135315%)" stop-opacity="1"/>
<stop offset="0.765625" stop-color="rgb(98.692322%, 93.463135%, 86.92627%)" stop-opacity="1"/>
<stop offset="0.78125" stop-color="rgb(98.733521%, 93.42041%, 86.717224%)" stop-opacity="1"/>
<stop offset="0.796875" stop-color="rgb(98.774719%, 93.379211%, 86.508179%)" stop-opacity="1"/>
<stop offset="0.8125" stop-color="rgb(98.817444%, 93.338013%, 86.299133%)" stop-opacity="1"/>
<stop offset="0.828125" stop-color="rgb(98.858643%, 93.295288%, 86.090088%)" stop-opacity="1"/>
<stop offset="0.84375" stop-color="rgb(98.901367%, 93.254089%, 85.881042%)" stop-opacity="1"/>
<stop offset="0.859375" stop-color="rgb(98.942566%, 93.211365%, 85.671997%)" stop-opacity="1"/>
<stop offset="0.875" stop-color="rgb(98.983765%, 93.170166%, 85.462952%)" stop-opacity="1"/>
<stop offset="0.890625" stop-color="rgb(99.026489%, 93.128967%, 85.253906%)" stop-opacity="1"/>
<stop offset="0.90625" stop-color="rgb(99.067688%, 93.086243%, 85.044861%)" stop-opacity="1"/>
<stop offset="0.921875" stop-color="rgb(99.108887%, 93.045044%, 84.835815%)" stop-opacity="1"/>
<stop offset="0.9375" stop-color="rgb(99.151611%, 93.002319%, 84.62677%)" stop-opacity="1"/>
<stop offset="0.953125" stop-color="rgb(99.19281%, 92.961121%, 84.417725%)" stop-opacity="1"/>
<stop offset="0.96875" stop-color="rgb(99.235535%, 92.919922%, 84.208679%)" stop-opacity="1"/>
<stop offset="0.984375" stop-color="rgb(99.276733%, 92.877197%, 83.999634%)" stop-opacity="1"/>
<stop offset="1" stop-color="rgb(99.317932%, 92.835999%, 83.790588%)" stop-opacity="1"/>
</linearGradient>
</defs>

<path fill-rule="nonzero" fill="rgb(30.200195%, 30.200195%, 30.200195%)" fill-opacity="1" d="M 1931.648438 1685.652344 C 1941 1744.023438 1964.121094 1806.734375 1997.851562 1865.230469 C 2014.421875 1893.800781 2033.230469 1920.839844 2053.640625 1945.4375 L 2053.640625 1946.300781 L 1696.359375 1946.300781 L 1696.359375 1945.714844 C 1716.789062 1921.023438 1735.601562 1893.890625 1752.148438 1865.230469 C 1785.851562 1806.710938 1808.921875 1744.003906 1818.210938 1685.652344 L 1931.648438 1685.652344 "/>
<path fill-rule="nonzero" fill="rgb(30.200195%, 30.200195%, 30.200195%)" fill-opacity="1" d="M 2068.671875 1935.113281 L 1681.328125 1935.113281 C 1668.730469 1935.113281 1658.578125 1945.257812 1658.578125 1957.859375 C 1658.578125 1970.460938 1668.730469 1980.609375 1681.328125 1980.609375 L 2068.671875 1980.609375 C 2081.269531 1980.609375 2091.421875 1970.460938 2091.421875 1957.859375 C 2091.421875 1945.257812 2081.269531 1935.113281 2068.671875 1935.113281 "/>
<path fill-rule="nonzero" fill="rgb(30.200195%, 30.200195%, 30.200195%)" fill-opacity="1" d="M 1177.480469 629.679688 L 2572.519531 629.679688 C 2639.25 629.679688 2692.960938 678.320312 2692.960938 738.730469 L 2692.960938 1656.535156 C 2692.960938 1716.945312 2639.25 1765.582031 2572.519531 1765.582031 L 1177.480469 1765.582031 C 1110.761719 1765.582031 1057.039062 1716.945312 1057.039062 1656.535156 L 1057.039062 738.730469 C 1057.039062 678.320312 1110.761719 629.679688 1177.480469 629.679688 "/>
<path fill-rule="nonzero" fill="rgb(83.59375%, 89.84375%, 100%)" fill-opacity="1" d="M 1227.261719 689.339844 L 2522.738281 689.339844 C 2584.699219 689.339844 2634.578125 706.710938 2634.578125 771.398438 L 2634.578125 1589.152344 C 2634.578125 1653.847656 2584.699219 1705.929688 2522.738281 1705.929688 L 1227.261719 1705.929688 C 1165.308594 1705.929688 1115.421875 1653.847656 1115.421875 1589.152344 L 1115.421875 771.398438 C 1115.421875 706.710938 1165.308594 689.339844 1227.261719 689.339844 "/>
<path fill-rule="nonzero" fill="rgb(100%, 100%, 100%)" fill-opacity="1" d="M 1229.101562 786.640625 L 1810.949219 789.128906 C 1823.019531 789.171875 1832.699219 798.800781 1832.648438 810.691406 L 1831.398438 1587.25 C 1831.351562 1599.144531 1821.601562 1608.679688 1809.53125 1608.625 L 1227.679688 1606.136719 C 1215.609375 1606.089844 1205.921875 1596.464844 1205.96875 1584.570312 L 1207.230469 808.011719 C 1207.269531 796.121094 1217.03125 786.589844 1229.101562 786.640625 "/>
<path fill-rule="nonzero" fill="rgb(100%, 100%, 100%)" fill-opacity="1" d="M 2520.898438 786.640625 L 1939.050781 789.128906 C 1926.980469 789.171875 1917.300781 798.800781 1917.351562 810.691406 L 1918.601562 1587.25 C 1918.648438 1599.144531 1928.398438 1608.679688 1940.46875 1608.625 L 2522.328125 1606.136719 C 2534.398438 1606.089844 2544.078125 1596.464844 2544.03125 1584.570312 L 2542.769531 808.011719 C 2542.730469 796.121094 2532.96875 786.589844 2520.898438 786.640625 "/>
<path fill-rule="nonzero" fill="rgb(33.325195%, 59.959412%, 100%)" fill-opacity="1" d="M 1271.820312 1144.609375 L 1273.019531 865.441406 C 1273.039062 859.648438 1277.660156 855.011719 1283.359375 855.03125 L 1756.539062 855.628906 C 1762.25 855.648438 1766.828125 860.328125 1766.800781 866.121094 L 1765.609375 1145.289062 C 1765.578125 1151.078125 1760.96875 1155.730469 1755.261719 1155.710938 L 1282.078125 1155.101562 C 1276.371094 1155.078125 1271.800781 1150.398438 1271.820312 1144.609375 "/>
<path fill-rule="nonzero" fill="rgb(100%, 100%, 100%)" fill-opacity="1" d="M 1486.070312 1066.171875 C 1523.671875 1045.710938 1561.5 1025.761719 1594.710938 1007.679688 C 1600.480469 1004.539062 1594.800781 997.769531 1594.800781 997.769531 C 1584.648438 991.929688 1501.730469 944.808594 1481.511719 936.269531 C 1479.398438 935.378906 1478.238281 937.53125 1477.679688 937.488281 C 1474.398438 942.398438 1476.621094 1052.898438 1477.191406 1061.269531 C 1477.191406 1061.269531 1480.199219 1069.371094 1486.070312 1066.171875 "/>
<path fill-rule="nonzero" fill="rgb(96.875%, 77.34375%, 37.646484%)" fill-opacity="1" d="M 1271.820312 1512.316406 L 1273.019531 1233.148438 C 1273.039062 1227.359375 1277.660156 1222.710938 1283.359375 1222.730469 L 1756.539062 1223.339844 C 1762.25 1223.359375 1766.828125 1228.039062 1766.800781 1233.828125 L 1765.609375 1512.996094 C 1765.578125 1518.789062 1760.96875 1523.433594 1755.261719 1523.410156 L 1282.078125 1522.808594 C 1276.371094 1522.789062 1271.800781 1518.105469 1271.820312 1512.316406 "/>
<path fill-rule="nonzero" fill="rgb(100%, 100%, 100%)" fill-opacity="1" d="M 1323.710938 1380.429688 C 1323.710938 1423.191406 1358.371094 1457.851562 1401.121094 1457.851562 C 1443.878906 1457.851562 1478.539062 1423.191406 1478.539062 1380.429688 C 1478.539062 1337.679688 1443.878906 1303.019531 1401.121094 1303.019531 C 1358.371094 1303.019531 1323.710938 1337.679688 1323.710938 1380.429688 "/>
<path fill-rule="nonzero" fill="rgb(96.875%, 77.34375%, 37.646484%)" fill-opacity="1" d="M 1375.230469 1358.101562 C 1375.230469 1373.160156 1387.441406 1385.371094 1402.5 1385.371094 C 1417.558594 1385.371094 1429.769531 1373.160156 1429.769531 1358.101562 C 1429.769531 1343.039062 1417.558594 1330.828125 1402.5 1330.828125 C 1387.441406 1330.828125 1375.230469 1343.039062 1375.230469 1358.101562 "/>
<path fill-rule="nonzero" fill="rgb(96.875%, 77.34375%, 37.646484%)" fill-opacity="1" d="M 1364.851562 1386.460938 C 1360.011719 1386.460938 1356.121094 1390.351562 1356.121094 1395.179688 L 1356.121094 1443.300781 C 1369.238281 1452.730469 1384.96875 1457.808594 1401.121094 1457.851562 C 1417.269531 1457.820312 1433.011719 1452.75 1446.128906 1443.339844 L 1446.128906 1395.179688 C 1446.128906 1390.351562 1442.238281 1386.460938 1437.398438 1386.460938 L 1364.851562 1386.460938 "/>
<path fill-rule="nonzero" fill="rgb(100%, 100%, 100%)" fill-opacity="1" d="M 1686.96875 1332.300781 L 1533.5 1331.960938 C 1529.53125 1331.949219 1526.339844 1335.78125 1526.320312 1340.550781 C 1526.308594 1345.320312 1529.488281 1349.179688 1533.449219 1349.191406 L 1686.929688 1349.53125 C 1690.890625 1349.539062 1694.089844 1345.710938 1694.101562 1340.929688 C 1694.109375 1336.160156 1690.929688 1332.308594 1686.96875 1332.300781 "/>
<path fill-rule="nonzero" fill="rgb(100%, 100%, 100%)" fill-opacity="1" d="M 1686.96875 1389.980469 L 1533.5 1389.628906 C 1529.53125 1389.621094 1526.339844 1393.460938 1526.320312 1398.230469 C 1526.308594 1403 1529.488281 1406.859375 1533.449219 1406.871094 L 1686.929688 1407.210938 C 1690.890625 1407.21875 1694.089844 1403.390625 1694.101562 1398.609375 C 1694.109375 1393.839844 1690.929688 1389.988281 1686.96875 1389.980469 "/>
<path fill-rule="nonzero" fill="rgb(100%, 44.309998%, 50.193787%)" fill-opacity="1" d="M 1246.070312 346.800781 L 709.054688 344.988281 C 661.675781 344.828125 623.433594 385.011719 623.300781 434.929688 L 622.632812 692.808594 C 622.503906 742.730469 660.539062 782.910156 707.914062 783.078125 L 1184.199219 784.769531 L 1237.339844 843.679688 C 1237.339844 843.679688 1234.601562 784.871094 1244.929688 784.890625 C 1292.308594 784.980469 1330.550781 744.871094 1330.679688 694.949219 L 1331.351562 437.070312 C 1331.480469 387.148438 1293.449219 346.960938 1246.070312 346.800781 "/>
<path fill-rule="nonzero" fill="rgb(100%, 100%, 100%)" fill-opacity="1" d="M 908.324219 555.160156 C 908.324219 572.820312 915.554688 589.75 928.421875 602.230469 C 941.289062 614.71875 958.742188 621.730469 976.941406 621.730469 C 1014.839844 621.730469 1045.558594 591.929688 1045.558594 555.160156 C 1045.558594 518.390625 1014.839844 488.589844 976.941406 488.589844 C 958.742188 488.589844 941.289062 495.601562 928.421875 508.089844 C 915.554688 520.570312 908.324219 537.511719 908.324219 555.160156 "/>
<path fill-rule="nonzero" fill="rgb(100%, 100%, 100%)" fill-opacity="1" d="M 1080.949219 555.160156 C 1080.949219 572.820312 1088.179688 589.75 1101.050781 602.230469 C 1113.910156 614.71875 1131.371094 621.730469 1149.558594 621.730469 C 1187.460938 621.730469 1218.179688 591.929688 1218.179688 555.160156 C 1218.179688 518.390625 1187.460938 488.589844 1149.558594 488.589844 C 1131.371094 488.589844 1113.910156 495.601562 1101.050781 508.089844 C 1088.179688 520.570312 1080.949219 537.511719 1080.949219 555.160156 "/>
<path fill-rule="nonzero" fill="rgb(100%, 100%, 100%)" fill-opacity="1" d="M 735.703125 555.160156 C 735.703125 572.820312 742.933594 589.75 755.800781 602.230469 C 768.667969 614.71875 786.121094 621.730469 804.320312 621.730469 C 842.214844 621.730469 872.933594 591.929688 872.933594 555.160156 C 872.933594 518.390625 842.214844 488.589844 804.320312 488.589844 C 786.121094 488.589844 768.667969 495.601562 755.800781 508.089844 C 742.933594 520.570312 735.703125 537.511719 735.703125 555.160156 "/>
<path fill-rule="nonzero" fill="rgb(94.921875%, 94.921875%, 94.921875%)" fill-opacity="1" d="M 2411.550781 1843.230469 L 3014.339844 1841.523438 C 3026.851562 1841.484375 3036.898438 1850.597656 3036.878906 1861.945312 L 3036.441406 1945.964844 C 3036.429688 1957.3125 3026.351562 1966.480469 3013.839844 1966.515625 L 2411.050781 1968.222656 C 2398.539062 1968.265625 2388.488281 1959.148438 2388.5 1947.800781 L 2388.941406 1863.785156 C 2388.960938 1852.433594 2399.039062 1843.265625 2411.550781 1843.230469 "/>
<path fill-rule="nonzero" fill="rgb(33.325195%, 59.959412%, 100%)" fill-opacity="1" d="M 2939.171875 1983.667969 L 2383.28125 1983.667969 C 2358.96875 1984.429688 2355.179688 1951.964844 2383.28125 1949.589844 L 2942.300781 1949.589844 C 2958.351562 1949.589844 2982.289062 1948.414062 2993.121094 1946.058594 C 3003.820312 1943.621094 3012.171875 1939.351562 3018.171875 1933.25 C 3024.039062 1927.148438 3026.96875 1913.867188 3026.96875 1902.886719 C 3026.96875 1887.722656 3020.96875 1872.261719 3008.96875 1865.984375 C 2996.839844 1859.710938 2968 1856.574219 2943.480469 1856.574219 L 2383.28125 1856.574219 C 2353.679688 1852.710938 2361.648438 1822.152344 2383.28125 1822.496094 L 2939.171875 1822.496094 C 2970.378906 1822.835938 3013.589844 1823.523438 3034.859375 1841.933594 C 3043.871094 1849.726562 3051.558594 1858.484375 3056 1867.722656 C 3060.429688 1876.960938 3062.648438 1887.765625 3062.648438 1900.140625 C 3062.648438 1914.867188 3060.300781 1927.546875 3055.609375 1938.179688 C 3050.78125 1948.8125 3043.410156 1957.480469 3033.488281 1964.191406 C 3023.449219 1970.902344 3010.660156 1975.824219 2995.140625 1978.964844 C 2979.480469 1982.101562 2960.828125 1983.667969 2939.171875 1983.667969 "/>
<path fill-rule="nonzero" fill="rgb(100%, 50.193787%, 50.193787%)" fill-opacity="1" d="M 2339.429688 1685.21875 L 2932.089844 1683.273438 C 2945.210938 1683.226562 2955.761719 1693.605469 2955.738281 1706.53125 L 2955.28125 1802.207031 C 2955.261719 1815.132812 2944.691406 1825.570312 2931.570312 1825.613281 L 2338.910156 1827.558594 C 2325.789062 1827.605469 2315.238281 1817.226562 2315.261719 1804.300781 L 2315.71875 1708.621094 C 2315.730469 1695.699219 2326.308594 1685.257812 2339.429688 1685.21875 "/>
<path fill="none" stroke-width="170.522" stroke-linecap="square" stroke-linejoin="round" stroke="rgb(100%, 100%, 100%)" stroke-opacity="1" stroke-miterlimit="4" d="M 28870.390625 7458.359375 C 28870.390625 7250.585938 28701.992188 7082.148438 28494.296875 7082.148438 C 28286.484375 7082.148438 28118.085938 7250.585938 28118.085938 7458.359375 C 28118.085938 7666.09375 28286.484375 7834.53125 28494.296875 7834.53125 C 28701.992188 7834.53125 28870.390625 7666.09375 28870.390625 7458.359375 Z M 28870.390625 7458.359375 " transform="matrix(0.1, 0, 0, -0.1, 0, 2501.25)"/>
<path fill-rule="nonzero" fill="rgb(100%, 100%, 100%)" fill-opacity="1" d="M 2474.691406 1701.820312 C 2479.828125 1704.101562 2483.101562 1709.238281 2483 1714.859375 C 2482.769531 1781.359375 2483.628906 1729.394531 2483.398438 1796.089844 C 2483.449219 1801.136719 2480.78125 1805.816406 2476.410156 1808.339844 C 2472.050781 1810.867188 2466.660156 1810.847656 2462.308594 1808.289062 C 2457.960938 1805.734375 2455.320312 1801.035156 2455.410156 1795.992188 C 2455.628906 1729.492188 2454.769531 1781.453125 2455 1714.761719 C 2454.949219 1709.996094 2457.328125 1705.53125 2461.308594 1702.910156 C 2465.289062 1700.292969 2470.328125 1699.882812 2474.691406 1701.820312 "/>
<path fill-rule="nonzero" fill="rgb(100%, 100%, 100%)" fill-opacity="1" d="M 2427.328125 1701.820312 C 2432.46875 1704.101562 2435.738281 1709.238281 2435.640625 1714.859375 C 2435.410156 1781.359375 2436.28125 1729.394531 2436.050781 1796.089844 C 2436.089844 1801.136719 2433.421875 1805.816406 2429.058594 1808.339844 C 2424.691406 1810.867188 2419.300781 1810.847656 2414.949219 1808.289062 C 2410.601562 1805.734375 2407.96875 1801.035156 2408.050781 1795.992188 C 2408.28125 1729.492188 2407.410156 1781.453125 2407.640625 1714.761719 C 2407.589844 1709.996094 2409.96875 1705.53125 2413.949219 1702.910156 C 2417.929688 1700.292969 2422.980469 1699.882812 2427.328125 1701.820312 "/>
<path fill-rule="nonzero" fill="rgb(100%, 100%, 100%)" fill-opacity="1" d="M 2522.050781 1701.820312 C 2527.179688 1704.101562 2530.460938 1709.238281 2530.359375 1714.859375 C 2530.128906 1781.359375 2530.988281 1729.394531 2530.761719 1796.089844 C 2530.808594 1801.136719 2528.140625 1805.816406 2523.769531 1808.339844 C 2519.410156 1810.867188 2514.019531 1810.847656 2509.671875 1808.289062 C 2505.320312 1805.734375 2502.679688 1801.035156 2502.761719 1795.992188 C 2502.988281 1729.492188 2502.128906 1781.453125 2502.359375 1714.761719 C 2502.308594 1709.996094 2504.679688 1705.53125 2508.671875 1702.910156 C 2512.648438 1700.292969 2517.691406 1699.882812 2522.050781 1701.820312 "/>
<path fill-rule="nonzero" fill="rgb(96.875%, 77.34375%, 37.646484%)" fill-opacity="1" d="M 2922.441406 2007.480469 L 2922.929688 1864.15625 C 2922.941406 1859.71875 2920.320312 1856.152344 2917.070312 1856.15625 L 2827.511719 1856.316406 C 2824.25 1856.320312 2821.621094 1859.894531 2821.609375 1864.332031 L 2821.121094 2007.65625 C 2821.109375 2012.09375 2823.730469 2015.660156 2826.980469 2015.652344 L 2872.53125 1970.335938 L 2916.539062 2015.496094 C 2919.800781 2015.492188 2922.429688 2011.914062 2922.441406 2007.480469 "/>
<path fill-rule="nonzero" fill="rgb(96.875%, 77.34375%, 37.646484%)" fill-opacity="1" d="M 2448.089844 1585.386719 L 3009.558594 1583.441406 C 3022.679688 1583.394531 3033.230469 1593.773438 3033.210938 1606.699219 L 3032.75 1662.675781 C 3032.730469 1675.601562 3022.160156 1686.042969 3009.039062 1686.082031 L 2447.570312 1688.027344 C 2434.449219 1688.074219 2423.898438 1677.695312 2423.921875 1664.769531 L 2424.378906 1608.789062 C 2424.390625 1595.863281 2434.96875 1585.425781 2448.089844 1585.386719 "/>
<path fill-rule="nonzero" fill="rgb(100%, 100%, 100%)" fill-opacity="1" d="M 2514.769531 1605.152344 L 2599.800781 1604.304688 C 2604.121094 1604.285156 2607.601562 1608.804688 2607.589844 1614.4375 L 2607.441406 1656.121094 C 2607.429688 1661.75 2603.949219 1666.300781 2599.621094 1666.316406 L 2514.601562 1667.164062 C 2510.28125 1667.183594 2506.800781 1662.660156 2506.808594 1657.03125 L 2506.960938 1615.347656 C 2506.960938 1609.71875 2510.449219 1605.167969 2514.769531 1605.152344 "/>
<path fill-rule="nonzero" fill="rgb(94.921875%, 94.921875%, 94.921875%)" fill-opacity="1" d="M 2894.769531 1471.210938 L 2399.808594 1469.808594 C 2389.550781 1469.769531 2381.289062 1477.261719 2381.300781 1486.578125 L 2381.671875 1555.5625 C 2381.679688 1564.882812 2389.960938 1572.410156 2400.21875 1572.441406 L 2895.179688 1573.84375 C 2905.449219 1573.875 2913.710938 1566.390625 2913.691406 1557.070312 L 2913.328125 1488.089844 C 2913.320312 1478.769531 2905.039062 1471.238281 2894.769531 1471.210938 "/>
<path fill-rule="nonzero" fill="rgb(100%, 50.193787%, 50.193787%)" fill-opacity="1" d="M 2461.53125 1586.523438 L 2917.980469 1586.523438 C 2937.941406 1587.148438 2941.050781 1560.492188 2917.980469 1558.542969 L 2458.960938 1558.542969 C 2445.789062 1558.542969 2426.128906 1557.574219 2417.238281 1555.644531 C 2408.460938 1553.640625 2401.601562 1550.132812 2396.671875 1545.125 C 2391.851562 1540.117188 2389.441406 1529.210938 2389.441406 1520.191406 C 2389.441406 1507.742188 2394.371094 1495.050781 2404.21875 1489.890625 C 2414.191406 1484.738281 2437.859375 1482.171875 2458 1482.171875 L 2917.980469 1482.171875 C 2942.289062 1479 2935.738281 1453.898438 2917.980469 1454.179688 L 2461.53125 1454.179688 C 2435.910156 1454.460938 2400.429688 1455.03125 2382.960938 1470.148438 C 2375.570312 1476.550781 2369.25 1483.738281 2365.609375 1491.320312 C 2361.96875 1498.910156 2360.148438 1507.777344 2360.148438 1517.9375 C 2360.148438 1530.03125 2362.078125 1540.441406 2365.929688 1549.171875 C 2369.890625 1557.902344 2375.949219 1565.023438 2384.089844 1570.53125 C 2392.339844 1576.042969 2402.828125 1580.085938 2415.578125 1582.660156 C 2428.429688 1585.238281 2443.75 1586.523438 2461.53125 1586.523438 "/>
<path fill="none" stroke-width="196.608" stroke-linecap="round" stroke-linejoin="round" stroke="rgb(100%, 44.309998%, 50.193787%)" stroke-opacity="1" stroke-miterlimit="4" d="M 21547.5 12250.78125 C 21067.5 12730.898438 20687.109375 13271.289062 20490 13753.203125 C 20293.007812 14235.117188 20295.390625 14618.984375 20496.914062 14820.390625 C 20698.28125 15021.914062 21082.1875 15024.296875 21564.101562 14827.304688 C 22046.015625 14630.3125 22586.40625 14249.804688 23066.484375 13769.804688 C 23546.601562 13289.6875 23926.992188 12749.296875 24123.984375 12267.382812 C 24321.015625 11785.507812 24318.59375 11401.601562 24117.1875 11200.195312 C 23915.703125 10998.710938 23531.796875 10996.289062 23050 11193.28125 C 22568.085938 11390.3125 22027.617188 11770.78125 21547.5 12250.78125 " transform="matrix(0.1, 0, 0, -0.1, 0, 2501.25)"/>
<path fill="none" stroke-width="196.608" stroke-linecap="round" stroke-linejoin="round" stroke="rgb(100%, 44.309998%, 50.193787%)" stroke-opacity="1" stroke-miterlimit="4" d="M 23381.09375 13010.3125 C 23381.09375 12331.40625 23267.890625 11680.195312 23066.484375 11200.195312 C 22865.117188 10720.117188 22591.914062 10450.390625 22306.992188 10450.390625 C 22022.1875 10450.390625 21748.984375 10720.117188 21547.5 11200.195312 C 21346.09375 11680.195312 21233.007812 12331.40625 21233.007812 13010.3125 C 21233.007812 13689.21875 21346.09375 14340.390625 21547.5 14820.390625 C 21748.984375 15300.507812 22022.1875 15570.195312 22306.992188 15570.195312 C 22591.914062 15570.195312 22865.117188 15300.507812 23066.484375 14820.390625 C 23267.890625 14340.390625 23381.09375 13689.21875 23381.09375 13010.3125 " transform="matrix(0.1, 0, 0, -0.1, 0, 2501.25)"/>
<path fill="none" stroke-width="196.608" stroke-linecap="round" stroke-linejoin="round" stroke="rgb(100%, 44.309998%, 50.193787%)" stroke-opacity="1" stroke-miterlimit="4" d="M 22306.992188 11936.289062 C 21628.085938 11936.289062 20976.914062 12049.414062 20496.914062 12250.78125 C 20016.796875 12452.304688 19747.109375 12725.390625 19747.109375 13010.3125 C 19747.109375 13295.195312 20016.796875 13568.28125 20496.914062 13769.804688 C 20976.914062 13971.210938 21628.085938 14084.296875 22306.992188 14084.296875 C 22985.898438 14084.296875 23637.109375 13971.210938 24117.1875 13769.804688 C 24597.1875 13568.28125 24866.914062 13295.195312 24866.914062 13010.3125 C 24866.914062 12725.390625 24597.1875 12452.304688 24117.1875 12250.78125 C 23637.109375 12049.414062 22985.898438 11936.289062 22306.992188 11936.289062 " transform="matrix(0.1, 0, 0, -0.1, 0, 2501.25)"/>
<path fill="none" stroke-width="196.608" stroke-linecap="round" stroke-linejoin="round" stroke="rgb(100%, 44.309998%, 50.193787%)" stroke-opacity="1" stroke-miterlimit="4" d="M 23066.484375 12250.78125 C 23546.601562 12730.898438 23926.992188 13271.289062 24123.984375 13753.203125 C 24321.015625 14235.117188 24318.59375 14618.984375 24117.1875 14820.390625 C 23915.703125 15021.914062 23531.796875 15024.296875 23050 14827.304688 C 22568.085938 14630.3125 22027.617188 14249.804688 21547.5 13769.804688 C 21067.5 13289.6875 20687.109375 12749.296875 20490 12267.382812 C 20293.007812 11785.507812 20295.390625 11401.601562 20496.914062 11200.195312 C 20698.28125 10998.710938 21082.1875 10996.289062 21564.101562 11193.28125 C 22046.015625 11390.3125 22586.40625 11770.78125 23066.484375 12250.78125 " transform="matrix(0.1, 0, 0, -0.1, 0, 2501.25)"/>
<path fill-rule="nonzero" fill="rgb(100%, 44.309998%, 50.193787%)" fill-opacity="1" d="M 2944.238281 1051.839844 C 2944.238281 1027.601562 2944.238281 1027.601562 2959.808594 1002.851562 C 2975.371094 977.839844 2975.371094 977.839844 3005.21875 961.511719 C 3035.078125 945.179688 3035.078125 945.179688 3074.878906 945.179688 C 3111.878906 945.179688 3111.878906 945.179688 3140.199219 958.960938 C 3168.53125 972.488281 3168.53125 972.488281 3183.839844 995.960938 C 3199.398438 1019.441406 3199.398438 1019.441406 3199.398438 1046.988281 C 3199.398438 1068.679688 3199.398438 1068.679688 3190.46875 1085.011719 C 3181.789062 1101.339844 3181.789062 1101.339844 3169.550781 1113.328125 C 3157.550781 1125.070312 3157.550781 1125.070312 3126.171875 1153.140625 C 3117.488281 1161.050781 3117.488281 1161.050781 3112.140625 1167.171875 C 3107.03125 1173.039062 3107.03125 1173.039062 3104.480469 1178.140625 C 3101.929688 1182.988281 3101.929688 1182.988281 3100.398438 1188.101562 C 3099.121094 1192.941406 3099.121094 1192.941406 3096.320312 1205.449219 C 3091.46875 1231.980469 3091.46875 1231.980469 3065.949219 1231.980469 C 3052.679688 1231.980469 3052.679688 1231.980469 3043.5 1223.308594 C 3034.570312 1214.628906 3034.570312 1214.628906 3034.570312 1197.539062 C 3034.570312 1176.101562 3034.570312 1176.101562 3041.199219 1160.539062 C 3047.839844 1144.71875 3047.839844 1144.71875 3058.808594 1132.980469 C 3069.78125 1120.988281 3069.78125 1120.988281 3088.410156 1104.660156 C 3104.738281 1090.371094 3104.738281 1090.371094 3111.878906 1083.230469 C 3119.28125 1075.828125 3119.28125 1075.828125 3124.128906 1066.898438 C 3129.230469 1057.960938 3129.230469 1057.960938 3129.230469 1047.5 C 3129.230469 1027.089844 3129.230469 1027.089844 3113.921875 1013.058594 C 3098.871094 999.019531 3098.871094 999.019531 3074.878906 999.019531 C 3046.808594 999.019531 3046.808594 999.019531 3033.550781 1013.308594 C 3020.28125 1027.351562 3020.28125 1027.351562 3011.089844 1054.898438 C 3002.421875 1083.738281 3002.421875 1083.738281 2978.179688 1083.738281 C 2963.890625 1083.738281 2963.890625 1083.738281 2953.941406 1073.78125 C 2944.238281 1063.578125 2944.238281 1063.578125 2944.238281 1051.839844 Z M 3068.761719 1331.488281 C 3053.191406 1331.488281 3053.191406 1331.488281 3041.460938 1321.539062 C 3029.96875 1311.339844 3029.96875 1311.339844 3029.96875 1293.21875 C 3029.96875 1277.148438 3029.96875 1277.148438 3041.199219 1266.171875 C 3052.429688 1255.199219 3052.429688 1255.199219 3068.761719 1255.199219 C 3084.828125 1255.199219 3084.828125 1255.199219 3095.808594 1266.171875 C 3106.78125 1277.148438 3106.78125 1277.148438 3106.78125 1293.21875 C 3106.78125 1311.078125 3106.78125 1311.078125 3095.300781 1321.289062 C 3083.808594 1331.488281 3083.808594 1331.488281 3068.761719 1331.488281 "/>
<path fill-rule="nonzero" fill="rgb(33.325195%, 59.959412%, 100%)" fill-opacity="1" d="M 2413.78125 1022.058594 C 2407.738281 1024.558594 2402.910156 1029.339844 2400.371094 1035.359375 C 2397.828125 1041.378906 2397.769531 1048.148438 2400.21875 1054.171875 C 2405.320312 1066.699219 2419.648438 1072.648438 2432.238281 1067.460938 C 2444.820312 1062.261719 2450.890625 1047.890625 2445.800781 1035.351562 C 2443.351562 1029.328125 2438.601562 1024.550781 2432.601562 1022.058594 C 2426.589844 1019.570312 2419.820312 1019.570312 2413.78125 1022.058594 "/>
<path fill-rule="nonzero" fill="rgb(33.325195%, 59.959412%, 100%)" fill-opacity="1" d="M 2176.191406 1412.191406 C 2170.140625 1414.691406 2165.320312 1419.46875 2162.78125 1425.488281 C 2160.230469 1431.519531 2160.179688 1438.28125 2162.628906 1444.300781 C 2167.71875 1456.828125 2182.058594 1462.789062 2194.640625 1457.589844 C 2207.230469 1452.390625 2213.300781 1438.019531 2208.199219 1425.488281 C 2205.75 1419.46875 2201.011719 1414.679688 2195 1412.191406 C 2189 1409.699219 2182.230469 1409.699219 2176.191406 1412.191406 "/>
<path fill-rule="nonzero" fill="rgb(33.325195%, 59.959412%, 100%)" fill-opacity="1" d="M 2027.21875 1040.191406 C 2021.179688 1042.691406 2016.359375 1047.46875 2013.808594 1053.488281 C 2011.269531 1059.511719 2011.21875 1066.28125 2013.660156 1072.300781 C 2018.761719 1084.828125 2033.101562 1090.78125 2045.679688 1085.589844 C 2058.269531 1080.390625 2064.339844 1066.019531 2059.238281 1053.488281 C 2056.789062 1047.46875 2052.039062 1042.679688 2046.039062 1040.191406 C 2040.039062 1037.699219 2033.269531 1037.699219 2027.21875 1040.191406 "/>
<path fill-rule="nonzero" fill="rgb(33.325195%, 59.959412%, 100%)" fill-opacity="1" d="M 2365.03125 1267.300781 C 2358.980469 1269.800781 2354.160156 1274.578125 2351.621094 1280.601562 C 2349.070312 1286.621094 2349.019531 1293.390625 2351.46875 1299.410156 C 2356.558594 1311.941406 2370.898438 1317.890625 2383.480469 1312.699219 C 2396.070312 1307.5 2402.140625 1293.128906 2397.039062 1280.589844 C 2394.589844 1274.570312 2389.851562 1269.789062 2383.839844 1267.300781 C 2377.839844 1264.808594 2371.070312 1264.808594 2365.03125 1267.300781 "/>
<path fill-rule="nonzero" fill="rgb(33.325195%, 59.959412%, 100%)" fill-opacity="1" d="M 2205.589844 1138.480469 C 2189.148438 1145.261719 2176.03125 1158.28125 2169.109375 1174.648438 C 2162.199219 1191.03125 2162.050781 1209.429688 2168.710938 1225.808594 C 2182.578125 1259.910156 2221.570312 1276.101562 2255.808594 1261.960938 C 2290.039062 1247.828125 2306.558594 1208.730469 2292.691406 1174.628906 C 2286.03125 1158.261719 2273.121094 1145.25 2256.78125 1138.46875 C 2240.449219 1131.691406 2222.039062 1131.691406 2205.589844 1138.480469 "/>
<path fill-rule="nonzero" fill="rgb(96.875%, 77.34375%, 37.646484%)" fill-opacity="1" d="M 2499.191406 620.109375 L 2830.238281 620.109375 C 2838.941406 620.109375 2845.949219 625.539062 2845.949219 632.289062 C 2845.949219 632.289062 2761.300781 759.890625 2763.101562 828.789062 C 2764.710938 890.101562 2564.621094 893.890625 2566.328125 828.789062 C 2568.039062 763.679688 2483.46875 632.289062 2483.46875 632.289062 C 2483.46875 632.289062 2490.480469 620.109375 2499.191406 620.109375 "/>
<path fill-rule="nonzero" fill="rgb(96.875%, 77.34375%, 37.646484%)" fill-opacity="1" d="M 2872.300781 550.859375 C 2872.300781 604.28125 2850.429688 655.511719 2811.5 693.28125 C 2772.570312 731.050781 2719.769531 752.269531 2664.710938 752.269531 C 2550.070312 752.261719 2457.128906 662.089844 2457.128906 550.859375 C 2457.128906 439.628906 2550.070312 349.460938 2664.710938 349.460938 C 2719.769531 349.460938 2772.570312 370.679688 2811.5 408.449219 C 2850.429688 446.21875 2872.300781 497.449219 2872.300781 550.859375 "/>
<path fill-rule="nonzero" fill="rgb(98.4375%, 92.96875%, 76.951599%)" fill-opacity="1" d="M 2988.671875 368.570312 C 2986.398438 368.46875 2984.148438 368.898438 2982.078125 369.839844 C 2919.199219 397.191406 2968.480469 376.53125 2905.769531 403.800781 C 2900.980469 405.808594 2897.640625 410.230469 2897.03125 415.390625 C 2896.410156 420.550781 2898.628906 425.640625 2902.820312 428.699219 C 2907.011719 431.769531 2912.53125 432.351562 2917.261719 430.210938 C 2980.148438 402.851562 2930.859375 423.519531 2993.570312 396.238281 C 2999.78125 393.640625 3003.371094 387.078125 3002.191406 380.441406 C 3001.019531 373.808594 2995.398438 368.878906 2988.671875 368.570312 "/>
<path fill-rule="nonzero" fill="rgb(98.4375%, 92.96875%, 76.951599%)" fill-opacity="1" d="M 2341 362.628906 C 2334.070312 362.46875 2328.011719 367.25 2326.570312 374.019531 C 2325.121094 380.789062 2328.699219 387.640625 2335.089844 390.308594 C 2397.789062 417.589844 2348.511719 396.921875 2411.398438 424.28125 C 2416.128906 426.421875 2421.648438 425.839844 2425.839844 422.78125 C 2430.03125 419.710938 2432.25 414.621094 2431.628906 409.460938 C 2431.019531 404.308594 2427.679688 399.878906 2422.890625 397.878906 C 2360.179688 370.601562 2409.460938 391.269531 2346.570312 363.910156 C 2344.820312 363.109375 2342.921875 362.679688 2341 362.628906 "/>
<path fill-rule="nonzero" fill="rgb(98.4375%, 92.96875%, 76.951599%)" fill-opacity="1" d="M 2814.238281 177.339844 C 2808.671875 177.089844 2803.480469 180.191406 2801.070312 185.21875 C 2771.738281 244.328125 2794.050781 197.839844 2764.628906 257.121094 C 2762.351562 261.570312 2762.640625 266.910156 2765.398438 271.089844 C 2768.148438 275.269531 2772.941406 277.648438 2777.929688 277.308594 C 2782.929688 276.980469 2787.351562 273.980469 2789.519531 269.46875 C 2818.851562 210.359375 2796.539062 256.851562 2825.960938 197.570312 C 2828.121094 193.359375 2828 188.351562 2825.621094 184.25 C 2823.25 180.160156 2818.960938 177.558594 2814.238281 177.339844 "/>
<path fill-rule="nonzero" fill="rgb(98.4375%, 92.96875%, 76.951599%)" fill-opacity="1" d="M 2506.601562 190.660156 C 2502.109375 190.550781 2497.898438 192.808594 2495.519531 196.609375 C 2493.140625 200.410156 2492.929688 205.191406 2494.980469 209.179688 C 2521.898438 263.421875 2501.480469 220.878906 2528.320312 274.96875 C 2530.320312 279.078125 2534.359375 281.808594 2538.929688 282.109375 C 2543.488281 282.421875 2547.859375 280.25 2550.378906 276.429688 C 2552.890625 272.609375 2553.171875 267.738281 2551.101562 263.671875 C 2524.179688 209.421875 2544.589844 251.960938 2517.75 197.878906 C 2515.691406 193.570312 2511.378906 190.78125 2506.601562 190.660156 "/>
<path fill-rule="nonzero" fill="rgb(33.325195%, 59.959412%, 100%)" fill-opacity="1" d="M 2559.921875 863.210938 C 2559.921875 932.960938 2606.070312 978.320312 2662.980469 978.320312 C 2719.898438 978.320312 2766.039062 932.960938 2766.039062 863.210938 C 2766.039062 793.46875 2719.898438 802.261719 2662.980469 802.261719 C 2606.070312 802.261719 2559.921875 793.46875 2559.921875 863.210938 "/>
<path fill-rule="nonzero" fill="rgb(33.325195%, 59.959412%, 100%)" fill-opacity="1" d="M 2574.910156 850.730469 L 2753.761719 850.730469 C 2768.71875 850.730469 2780.761719 861.730469 2780.761719 875.390625 L 2780.761719 878.289062 C 2780.761719 891.949219 2768.71875 902.949219 2753.761719 902.949219 L 2574.910156 902.949219 C 2559.941406 902.949219 2547.898438 891.949219 2547.898438 878.289062 L 2547.898438 875.390625 C 2547.898438 861.730469 2559.941406 850.730469 2574.910156 850.730469 "/>
<path fill-rule="nonzero" fill="rgb(33.325195%, 59.959412%, 100%)" fill-opacity="1" d="M 2574.910156 802.699219 L 2753.761719 802.699219 C 2768.71875 802.699219 2780.761719 813.699219 2780.761719 827.359375 L 2780.761719 830.261719 C 2780.761719 843.921875 2768.71875 854.910156 2753.761719 854.910156 L 2574.910156 854.910156 C 2559.941406 854.910156 2547.898438 843.921875 2547.898438 830.261719 L 2547.898438 827.359375 C 2547.898438 813.699219 2559.941406 802.699219 2574.910156 802.699219 "/>
<path fill-rule="nonzero" fill="rgb(33.325195%, 59.959412%, 100%)" fill-opacity="1" d="M 277.460938 1442.769531 L 265.242188 1410.660156 L 161.207031 1410.660156 L 148.988281 1443.46875 C 141.828125 1462.671875 141.828125 1462.671875 136.769531 1469.480469 C 131.707031 1476.109375 131.707031 1476.109375 120.183594 1476.109375 C 110.410156 1476.109375 110.410156 1476.109375 102.902344 1468.960938 C 95.398438 1461.800781 95.398438 1461.800781 95.398438 1452.71875 C 95.398438 1447.488281 95.398438 1447.488281 97.144531 1441.898438 C 98.890625 1436.308594 98.890625 1436.308594 102.902344 1426.371094 L 168.363281 1260.191406 C 171.15625 1253.03125 171.15625 1253.03125 174.996094 1243.078125 C 179.011719 1232.949219 179.011719 1232.949219 183.375 1226.320312 C 187.914062 1219.691406 187.914062 1219.691406 195.070312 1215.671875 C 202.402344 1211.480469 202.402344 1211.480469 213.050781 1211.480469 C 223.871094 1211.480469 223.871094 1211.480469 231.03125 1215.671875 C 238.359375 1219.691406 238.359375 1219.691406 242.726562 1226.148438 C 247.265625 1232.609375 247.265625 1232.609375 250.230469 1240.109375 C 253.371094 1247.441406 253.371094 1247.441406 258.085938 1259.839844 L 324.941406 1424.96875 C 332.796875 1443.820312 332.796875 1443.820312 332.796875 1452.371094 C 332.796875 1461.28125 332.796875 1461.28125 325.289062 1468.78125 C 317.960938 1476.109375 317.960938 1476.109375 307.484375 1476.109375 C 301.378906 1476.109375 301.378906 1476.109375 297.011719 1473.851562 C 292.648438 1471.75 292.648438 1471.75 289.679688 1468.078125 C 286.714844 1464.238281 286.714844 1464.238281 283.222656 1456.558594 C 279.90625 1448.710938 279.90625 1448.710938 277.460938 1442.769531 Z M 174.820312 1371.730469 L 251.277344 1371.730469 L 212.699219 1266.121094 Z M 174.820312 1371.730469 "/>
<path fill-rule="nonzero" fill="rgb(96.875%, 77.34375%, 37.646484%)" fill-opacity="1" d="M 509.035156 1116.089844 L 430.832031 1116.089844 C 413.898438 1116.089844 413.898438 1116.089844 406.566406 1108.578125 C 399.410156 1100.898438 399.410156 1100.898438 399.410156 1084.320312 L 399.410156 891.960938 C 399.410156 875.03125 399.410156 875.03125 406.742188 867.691406 C 414.25 860.191406 414.25 860.191406 430.832031 860.191406 L 513.746094 860.191406 C 532.074219 860.191406 532.074219 860.191406 545.515625 862.460938 C 558.957031 864.730469 558.957031 864.730469 569.605469 871.191406 C 578.683594 876.601562 578.683594 876.601562 585.664062 884.980469 C 592.648438 893.179688 592.648438 893.179688 596.3125 903.300781 C 599.980469 913.25 599.980469 913.25 599.980469 924.429688 C 599.980469 962.828125 599.980469 962.828125 561.578125 980.628906 C 612.023438 996.691406 612.023438 996.691406 612.023438 1043.128906 C 612.023438 1064.601562 612.023438 1064.601562 601.027344 1081.878906 C 590.027344 1098.980469 590.027344 1098.980469 571.351562 1107.191406 C 559.65625 1112.078125 559.65625 1112.078125 544.46875 1114.171875 C 529.28125 1116.089844 529.28125 1116.089844 509.035156 1116.089844 Z M 505.195312 1002.449219 L 451.253906 1002.449219 L 451.253906 1077.160156 L 506.9375 1077.160156 C 559.480469 1077.160156 559.480469 1077.160156 559.480469 1039.289062 C 559.480469 1019.910156 559.480469 1019.910156 545.867188 1011.179688 C 532.25 1002.449219 532.25 1002.449219 505.195312 1002.449219 Z M 451.253906 899.109375 L 451.253906 965.269531 L 498.734375 965.269531 C 518.109375 965.269531 518.109375 965.269531 528.585938 961.609375 C 539.234375 957.941406 539.234375 957.941406 544.820312 947.640625 C 549.183594 940.308594 549.183594 940.308594 549.183594 931.230469 C 549.183594 911.859375 549.183594 911.859375 535.394531 905.570312 C 521.601562 899.109375 521.601562 899.109375 493.324219 899.109375 L 451.253906 899.109375 "/>
<path fill-rule="nonzero" fill="rgb(100%, 44.309998%, 50.193787%)" fill-opacity="1" d="M 992.417969 1264.410156 C 992.417969 1276.628906 992.417969 1276.628906 986.308594 1290.941406 C 980.371094 1305.078125 980.371094 1305.078125 967.457031 1318.871094 C 954.539062 1332.480469 954.539062 1332.480469 934.464844 1341.039062 C 914.390625 1349.589844 914.390625 1349.589844 887.683594 1349.589844 C 867.433594 1349.589844 867.433594 1349.589844 850.851562 1345.75 C 834.269531 1341.910156 834.269531 1341.910156 820.652344 1333.878906 C 807.210938 1325.679688 807.210938 1325.679688 795.863281 1312.410156 C 785.742188 1300.371094 785.742188 1300.371094 778.585938 1285.53125 C 771.425781 1270.519531 771.425781 1270.519531 767.761719 1253.578125 C 764.269531 1236.648438 764.269531 1236.648438 764.269531 1217.621094 C 764.269531 1186.730469 764.269531 1186.730469 773.171875 1162.289062 C 782.25 1137.851562 782.25 1137.851562 799.007812 1120.570312 C 815.765625 1103.109375 815.765625 1103.109375 838.28125 1094.039062 C 860.800781 1084.960938 860.800781 1084.960938 886.285156 1084.960938 C 917.355469 1084.960938 917.355469 1084.960938 941.621094 1097.351562 C 965.886719 1109.75 965.886719 1109.75 978.800781 1128.078125 C 991.71875 1146.230469 991.71875 1146.230469 991.71875 1162.460938 C 991.71875 1171.371094 991.71875 1171.371094 985.4375 1178.171875 C 979.152344 1184.980469 979.152344 1184.980469 970.25 1184.980469 C 960.300781 1184.980469 960.300781 1184.980469 955.238281 1180.269531 C 950.347656 1175.558594 950.347656 1175.558594 944.238281 1164.039062 C 934.113281 1145.011719 934.113281 1145.011719 920.324219 1135.578125 C 906.710938 1126.160156 906.710938 1126.160156 886.636719 1126.160156 C 854.691406 1126.160156 854.691406 1126.160156 835.664062 1150.421875 C 816.8125 1174.679688 816.8125 1174.679688 816.8125 1219.371094 C 816.8125 1249.21875 816.8125 1249.21875 825.191406 1269.121094 C 833.570312 1288.839844 833.570312 1288.839844 848.929688 1298.621094 C 864.292969 1308.398438 864.292969 1308.398438 884.890625 1308.398438 C 907.234375 1308.398438 907.234375 1308.398438 922.59375 1297.398438 C 938.128906 1286.230469 938.128906 1286.230469 945.984375 1264.761719 C 949.300781 1254.628906 949.300781 1254.628906 954.1875 1248.351562 C 959.078125 1241.890625 959.078125 1241.890625 969.898438 1241.890625 C 979.152344 1241.890625 979.152344 1241.890625 985.785156 1248.351562 C 992.417969 1254.808594 992.417969 1254.808594 992.417969 1264.410156 "/>
<path fill-rule="nonzero" fill="rgb(33.325195%, 59.959412%, 100%)" fill-opacity="1" d="M 3563.910156 1292.699219 L 3422.789062 1292.699219 C 3403.648438 1292.699219 3388.238281 1308.109375 3388.238281 1327.25 L 3388.238281 1468.371094 C 3388.238281 1487.519531 3403.648438 1502.929688 3422.789062 1502.929688 L 3471.011719 1502.929688 L 3491.019531 1535.601562 L 3512.261719 1502.929688 L 3563.910156 1502.929688 C 3583.058594 1502.929688 3598.46875 1487.519531 3598.46875 1468.371094 L 3598.46875 1327.25 C 3598.46875 1308.109375 3583.058594 1292.699219 3563.910156 1292.699219 "/>
<path fill-rule="nonzero" fill="rgb(100%, 100%, 100%)" fill-opacity="1" d="M 3631.609375 1303.378906 C 3628.050781 1303.488281 3624.679688 1304.96875 3622.199219 1307.519531 L 3509 1420.730469 L 3461.671875 1346.359375 C 3459.089844 1343.710938 3455.550781 1342.210938 3451.851562 1342.210938 C 3439.558594 1342.21875 3433.5 1357.148438 3442.308594 1365.71875 L 3495.351562 1449.070312 C 3495.371094 1449.089844 3495.390625 1449.101562 3495.398438 1449.121094 C 3497.601562 1452.71875 3501.339844 1455.109375 3505.539062 1455.589844 C 3509.730469 1456.070312 3513.921875 1454.589844 3516.871094 1451.570312 L 3641.558594 1326.878906 C 3645.609375 1322.949219 3646.820312 1316.929688 3644.621094 1311.730469 C 3642.421875 1306.53125 3637.25 1303.21875 3631.609375 1303.378906 "/>
<path fill-rule="nonzero" fill="rgb(96.875%, 77.34375%, 37.646484%)" fill-opacity="1" d="M 1202.230469 2080.640625 L 1765.769531 2082.613281 C 1775.128906 2082.644531 1782.339844 2098.097656 1781.929688 2117.21875 C 1781.53125 2136.339844 1773.671875 2151.675781 1764.308594 2151.644531 L 1200.761719 2149.671875 C 1191.398438 2149.636719 1184.199219 2134.1875 1184.601562 2115.066406 C 1185.011719 2095.945312 1192.871094 2080.609375 1202.230469 2080.640625 "/>
<path fill-rule="nonzero" fill="rgb(100%, 100%, 100%)" fill-opacity="1" d="M 1769.480469 2082.878906 L 1769.140625 2150.546875 L 1863.558594 2117.539062 Z M 1769.480469 2082.878906 "/>
<path fill-rule="nonzero" fill="rgb(0%, 0%, 0%)" fill-opacity="1" d="M 1863.558594 2117.539062 L 1844.378906 2124.160156 L 1844.449219 2110.5625 Z M 1863.558594 2117.539062 "/>
<path fill-rule="nonzero" fill="rgb(0%, 0%, 0%)" fill-opacity="1" d="M 1863.558594 2117.539062 L 1844.378906 2124.160156 L 1844.648438 2120.726562 L 1863.558594 2117.539062 "/>
<path fill-rule="nonzero" fill="rgb(0%, 0%, 0%)" fill-opacity="1" d="M 1863.558594 2117.675781 L 1844.648438 2120.726562 L 1844.570312 2114.121094 Z M 1863.558594 2117.675781 "/>
<path fill-rule="nonzero" fill="rgb(30.200195%, 30.200195%, 30.200195%)" fill-opacity="1" d="M 2304.820312 252.121094 L 1511.371094 249.371094 C 1409.308594 265.28125 1423.609375 391.738281 1512.109375 394.421875 L 2305.558594 397.171875 C 2400.070312 385.988281 2387.949219 249.339844 2304.820312 252.121094 "/>
<path fill-rule="nonzero" fill="rgb(100%, 100%, 100%)" fill-opacity="1" d="M 982.777344 1467.808594 C 921.074219 1493.78125 871.824219 1543.566406 845.863281 1606.230469 C 819.902344 1668.890625 819.359375 1739.289062 844.347656 1801.9375 C 896.386719 1932.398438 1042.738281 1994.328125 1171.230469 1940.257812 C 1299.71875 1886.191406 1361.699219 1736.601562 1309.660156 1606.140625 C 1284.671875 1543.488281 1236.191406 1493.71875 1174.890625 1467.78125 C 1113.589844 1441.839844 1044.480469 1441.851562 982.777344 1467.808594 "/>
<path fill="none" stroke-width="416.473" stroke-linecap="round" stroke-linejoin="round" stroke="rgb(33.325195%, 59.959412%, 100%)" stroke-opacity="1" stroke-miterlimit="4" d="M 9827.773438 10334.414062 C 9210.742188 10074.6875 8718.242188 9576.835938 8458.632812 8950.195312 C 8199.023438 8323.59375 8193.59375 7619.609375 8443.476562 6993.125 C 8963.867188 5688.515625 10427.382812 5069.21875 11712.304688 5609.921875 C 12997.1875 6150.585938 13616.992188 7646.484375 13096.601562 8951.09375 C 12846.71875 9577.617188 12361.914062 10075.3125 11748.90625 10334.6875 C 11135.898438 10594.101562 10444.804688 10593.984375 9827.773438 10334.414062 Z M 9827.773438 10334.414062 " transform="matrix(0.1, 0, 0, -0.1, 0, 2501.25)"/>
<path fill-rule="nonzero" fill="rgb(33.325195%, 59.959412%, 100%)" fill-opacity="1" d="M 1067.859375 1746.542969 L 1070.308594 1546.503906 C 1070.390625 1539.5625 1063.589844 1533.894531 1055.058594 1533.789062 L 1053.238281 1533.765625 C 1044.710938 1533.660156 1037.769531 1539.164062 1037.679688 1546.101562 L 1035.238281 1746.144531 C 1035.148438 1753.082031 1041.949219 1758.753906 1050.488281 1758.855469 L 1052.300781 1758.878906 C 1060.839844 1758.984375 1067.769531 1753.480469 1067.859375 1746.542969 "/>
<path fill-rule="nonzero" fill="rgb(33.325195%, 59.959412%, 100%)" fill-opacity="1" d="M 1048.980469 1758.828125 L 1157.898438 1761.277344 C 1164.839844 1761.433594 1170.511719 1754.5625 1170.609375 1746.027344 L 1170.640625 1744.214844 C 1170.738281 1735.679688 1165.238281 1728.8125 1158.300781 1728.65625 L 1049.378906 1726.210938 C 1042.441406 1726.054688 1036.769531 1732.925781 1036.671875 1741.460938 L 1036.640625 1743.273438 C 1036.539062 1751.808594 1042.039062 1758.675781 1048.980469 1758.828125 "/>
<path fill-rule="nonzero" fill="rgb(100%, 44.309998%, 50.193787%)" fill-opacity="1" d="M 535.070312 1710.757812 C 522.75 1706.023438 508.792969 1709.117188 499.628906 1718.613281 C 389.613281 1829.386719 474.441406 1741.6875 364.105469 1852.785156 C 355.65625 1861.082031 352.320312 1873.28125 355.378906 1884.722656 C 358.433594 1896.164062 367.410156 1905.078125 378.871094 1908.054688 C 390.332031 1911.03125 402.511719 1907.613281 410.746094 1899.105469 C 520.765625 1788.324219 435.9375 1876.023438 546.269531 1764.929688 C 554.269531 1757.101562 557.730469 1745.742188 555.464844 1734.785156 C 553.199219 1723.824219 545.515625 1714.773438 535.070312 1710.757812 "/>
<path fill-rule="nonzero" fill="rgb(100%, 44.309998%, 50.193787%)" fill-opacity="1" d="M 375.34375 1710.757812 C 387.660156 1706.023438 401.617188 1709.117188 410.78125 1718.613281 C 520.796875 1829.386719 435.972656 1741.6875 546.304688 1852.785156 C 554.757812 1861.082031 558.089844 1873.28125 555.035156 1884.722656 C 551.976562 1896.164062 543.003906 1905.078125 531.539062 1908.054688 C 520.078125 1911.03125 507.902344 1907.613281 499.664062 1899.105469 C 389.644531 1788.324219 474.472656 1876.023438 364.140625 1764.929688 C 356.144531 1757.101562 352.679688 1745.742188 354.945312 1734.785156 C 357.210938 1723.824219 364.894531 1714.773438 375.34375 1710.757812 "/>
<path fill-rule="nonzero" fill="rgb(96.875%, 77.34375%, 37.646484%)" fill-opacity="1" d="M 809.285156 1441.988281 C 804.425781 1431.058594 793.496094 1424.101562 781.535156 1424.308594 C 640.011719 1424.789062 750.597656 1422.949219 608.660156 1423.441406 C 597.925781 1423.339844 587.96875 1429.03125 582.59375 1438.320312 C 577.222656 1447.609375 577.261719 1459.078125 582.699219 1468.328125 C 588.140625 1477.589844 598.136719 1483.199219 608.871094 1483.03125 C 750.398438 1482.539062 639.8125 1484.378906 781.742188 1483.890625 C 791.886719 1484 801.390625 1478.941406 806.960938 1470.46875 C 812.53125 1461.988281 813.410156 1451.261719 809.285156 1441.988281 "/>
<path fill-rule="nonzero" fill="rgb(96.875%, 77.34375%, 37.646484%)" fill-opacity="1" d="M 3467.128906 626.28125 C 3462.269531 615.351562 3451.339844 608.390625 3439.378906 608.601562 C 3297.859375 609.089844 3408.441406 607.25 3266.511719 607.730469 C 3255.769531 607.640625 3245.820312 613.320312 3240.441406 622.609375 C 3235.070312 631.910156 3235.109375 643.371094 3240.550781 652.628906 C 3245.980469 661.878906 3255.980469 667.5 3266.71875 667.320312 C 3408.238281 666.828125 3297.660156 668.679688 3439.589844 668.191406 C 3449.730469 668.289062 3459.230469 663.238281 3464.808594 654.761719 C 3470.378906 646.28125 3471.25 635.550781 3467.128906 626.28125 "/>
<path fill-rule="nonzero" fill="rgb(96.875%, 77.34375%, 37.646484%)" fill-opacity="1" d="M 3467.128906 735.039062 C 3462.269531 724.109375 3451.339844 717.148438 3439.378906 717.359375 C 3297.859375 717.851562 3408.441406 716.011719 3266.511719 716.5 C 3255.769531 716.398438 3245.820312 722.078125 3240.441406 731.371094 C 3235.070312 740.671875 3235.109375 752.128906 3240.550781 761.390625 C 3245.980469 770.640625 3255.980469 776.261719 3266.71875 776.078125 C 3408.238281 775.589844 3297.660156 777.441406 3439.589844 776.949219 C 3449.730469 777.058594 3459.230469 772 3464.808594 763.519531 C 3470.378906 755.039062 3471.25 744.308594 3467.128906 735.039062 "/>
<path fill-rule="nonzero" fill="rgb(100%, 44.309998%, 50.193787%)" fill-opacity="1" d="M 1193.71875 2079.023438 L 1230.820312 2079.339844 C 1247.871094 2086.664062 1248.890625 2150.300781 1226.898438 2151.554688 L 1192.78125 2151.273438 C 1186.769531 2151.226562 1182.140625 2135.074219 1182.398438 2115.0625 C 1182.660156 2095.046875 1187.710938 2078.996094 1193.71875 2079.03125 "/>
<path fill-rule="nonzero" fill="rgb(100%, 100%, 100%)" fill-opacity="1" d="M 1541.550781 340.480469 L 1539.808594 342.449219 C 1538.929688 343.449219 1539.039062 344.941406 1540.058594 345.800781 L 1582.949219 381.78125 C 1583.96875 382.640625 1585.5 382.519531 1586.378906 381.519531 L 1588.121094 379.550781 C 1589 378.550781 1588.890625 377.058594 1587.871094 376.199219 L 1544.980469 340.210938 C 1543.960938 339.359375 1542.429688 339.480469 1541.550781 340.480469 "/>
<path fill-rule="nonzero" fill="rgb(100%, 100%, 100%)" fill-opacity="1" d="M 1504.691406 288.929688 C 1516.640625 284.511719 1530.660156 286.441406 1541.011719 295.128906 C 1556.070312 307.769531 1557.808594 330.011719 1544.851562 344.71875 C 1531.898438 359.421875 1509.101562 361.078125 1494.039062 348.441406 C 1478.96875 335.800781 1477.230469 313.558594 1490.191406 298.851562 C 1494.238281 294.261719 1499.25 290.941406 1504.691406 288.929688 Z M 1506.679688 294.058594 C 1502.101562 295.75 1497.878906 298.558594 1494.46875 302.441406 C 1483.519531 314.859375 1484.96875 333.53125 1497.730469 344.238281 C 1510.5 354.960938 1529.640625 353.550781 1540.578125 341.128906 C 1551.519531 328.710938 1550.078125 310.039062 1537.308594 299.328125 C 1528.53125 291.960938 1516.738281 290.328125 1506.679688 294.058594 "/>
<path fill-rule="nonzero" fill="rgb(100%, 100%, 100%)" fill-opacity="1" d="M 1550.691406 348.171875 C 1556.140625 343.089844 1561.511719 351.539062 1565.5 354.21875 C 1573.101562 361.390625 1582.570312 367.070312 1589.238281 374.988281 C 1591.46875 380.089844 1583.628906 387.308594 1577.46875 381.199219 C 1567.800781 372.460938 1556.691406 364.921875 1547.769531 355.558594 C 1546.46875 352.691406 1548.691406 350.058594 1550.691406 348.171875 "/>
<path fill-rule="nonzero" fill="rgb(100%, 44.309998%, 50.193787%)" fill-opacity="1" d="M 2198.800781 2096.929688 C 2182.359375 2103.71875 2169.230469 2116.730469 2162.320312 2133.109375 C 2155.398438 2149.488281 2155.25 2167.890625 2161.910156 2184.265625 C 2175.78125 2218.367188 2214.769531 2234.554688 2249.011719 2220.421875 C 2283.25 2206.289062 2299.761719 2167.1875 2285.890625 2133.085938 C 2279.238281 2116.710938 2266.320312 2103.703125 2249.980469 2096.921875 C 2233.648438 2090.140625 2215.238281 2090.144531 2198.800781 2096.929688 "/>
</svg>
